<svg width="10" height="10" viewBox="0 0 10 10" fill="none" xmlns="http://www.w3.org/2000/svg">
<path d="M5.00094 0.00244141C7.75994 0.00244141 9.99994 2.24244 9.99994 5.00094C9.99994 7.75994 7.75994 9.99994 5.00094 9.99994C2.24244 9.99994 0.00244141 7.75994 0.00244141 5.00094C0.00244141 2.24244 2.24244 0.00244141 5.00094 0.00244141ZM5.00094 0.752441C2.65594 0.752441 0.752441 2.65594 0.752441 5.00094C0.752441 7.34594 2.65594 9.24994 5.00094 9.24994C7.34594 9.24994 9.24994 7.34594 9.24994 5.00094C9.24994 2.65594 7.34594 0.752441 5.00094 0.752441ZM5.00094 4.00244C4.79394 4.00244 4.62594 4.17044 4.62594 4.37744V7.12744C4.62594 7.33444 4.79394 7.50244 5.00094 7.50244C5.20794 7.50244 5.37594 7.33444 5.37594 7.12744V4.37744C5.37594 4.17044 5.20794 4.00244 5.00094 4.00244ZM4.99994 2.50244C5.27594 2.50244 5.49994 2.72644 5.49994 3.00244C5.49994 3.27844 5.27594 3.50244 4.99994 3.50244C4.72394 3.50244 4.49994 3.27844 4.49994 3.00244C4.49994 2.72644 4.72394 2.50244 4.99994 2.50244Z" fill="black"/>
</svg>
