<svg width="139" height="44" viewBox="0 0 139 44" fill="none" xmlns="http://www.w3.org/2000/svg">
<g clip-path="url(#clip0_1534_1072)">
<path d="M28.7485 37.7766H0V43.7504H28.7485V37.7766Z" fill="#FF1300" fill-opacity="0.85"/>
<path d="M19.6009 4.37504C18.7821 1.93052 17.8378 0 14.5983 0C11.3589 0 10.3548 1.92454 9.49414 4.37504C0.597644 29.66 0.597656 29.66 0.597656 29.66H6.49677L8.54981 23.6503H19.8998L21.8034 29.66H28.0761C28.0761 29.66 28.0761 29.66 19.6009 4.37504ZM10.2681 18.57L14.2995 6.58646H14.4489L18.2562 18.57H10.2681Z" fill="#FF1300" fill-opacity="0.85"/>
<path d="M45.3402 21.3074H35.2632V24.8337H45.3402V21.3074Z" fill="#FF1300" fill-opacity="0.85"/>
<path d="M52.575 30.1531H51.8518V26.1905H52.0849C53.857 26.1905 54.4398 25.282 54.6729 22.7628L55.4887 13.3911H67.7262V29.9409H63.7636V16.8636H58.8925L58.3576 23.0646C57.9123 27.846 56.5376 30.1531 52.575 30.1531Z" fill="#FF1300" fill-opacity="0.85"/>
<path d="M71.3632 17.8708H75.0688V24.6067L79.4289 17.8708H83.1584V29.944H79.4289V23.1842L75.0688 29.944H71.3632V17.8708Z" fill="#FF1300" fill-opacity="0.85"/>
<path d="M93.6267 26.1695C93.6267 25.4942 93.1127 25.1206 92.1804 25.1206H90.2917V22.6253H92.016C92.8318 22.6253 93.3459 22.2996 93.3459 21.5525C93.3459 20.8054 92.7631 20.387 91.762 20.387C90.4112 20.387 89.8046 21.0624 89.4549 21.7856H85.7941C86.1199 19.6429 88.0085 17.5659 91.762 17.5659C95.3511 17.5659 97.0993 19.0123 97.0993 21.1789C97.0993 22.6014 96.1908 23.4411 95.2584 23.7191C96.4 24.0209 97.425 24.8845 97.425 26.3279C97.425 28.7276 95.3032 30.2428 91.6454 30.2428C87.6828 30.2428 85.7702 28.0044 85.585 25.8139H89.1979C89.4549 26.6059 90.1781 27.4217 91.6454 27.4217C92.9035 27.4277 93.6267 27.0302 93.6267 26.1695Z" fill="#FF1300" fill-opacity="0.85"/>
<path d="M100.109 17.8708H103.814V24.6067L108.174 17.8708H111.904V29.944H108.174V23.1842L103.814 29.944H100.109V17.8708Z" fill="#FF1300" fill-opacity="0.85"/>
<path d="M115.146 17.8708H118.924V22.1831H122.934V17.8708H126.711V29.944H122.934V25.3299H118.924V29.944H115.146V17.8708Z" fill="#FF1300" fill-opacity="0.85"/>
<path d="M129.951 17.8708H138.877V21.0176H133.725V29.944H129.948V17.8708H129.951Z" fill="#FF1300" fill-opacity="0.85"/>
</g>
<defs>
<clipPath id="clip0_1534_1072">
<rect width="138.961" height="43.6308" fill="white"/>
</clipPath>
</defs>
</svg>
