<svg width="20" height="20" viewBox="0 0 20 20" fill="none" xmlns="http://www.w3.org/2000/svg">
<path d="M10.0019 0C15.5199 0 19.9999 4.48 19.9999 9.998C19.9999 15.515 15.5199 19.995 10.0019 19.995C4.48488 19.995 0.00488281 15.515 0.00488281 9.998C0.00488281 4.48 4.48488 0 10.0019 0ZM10.0019 1.5C5.31188 1.5 1.50488 5.308 1.50488 9.998C1.50488 14.688 5.31188 18.495 10.0019 18.495C14.6919 18.495 18.4999 14.688 18.4999 9.998C18.4999 5.308 14.6919 1.5 10.0019 1.5ZM9.25488 9.25H5.75488C5.34088 9.25 5.00488 9.586 5.00488 10C5.00488 10.414 5.34088 10.75 5.75488 10.75H9.25488V14.25C9.25488 14.664 9.59088 15 10.0049 15C10.4189 15 10.7549 14.664 10.7549 14.25V10.75H14.2549C14.6689 10.75 15.0049 10.414 15.0049 10C15.0049 9.586 14.6689 9.25 14.2549 9.25H10.7549V5.75C10.7549 5.336 10.4189 5 10.0049 5C9.59088 5 9.25488 5.336 9.25488 5.75V9.25Z" fill="#F03226"/>
</svg>
